# Blender v2.77 (sub 0) OBJ File: 'WireCube1.blend'
# www.blender.org
mtllib WireCube1.mtl
o Cube
v 99.999931 100.049995 100.000061
v 99.999931 100.000000 99.950058
v 99.999931 99.949997 100.000061
v 99.999931 100.000000 100.050056
v -100.000038 100.049995 99.999962
v -99.964676 100.000000 99.964607
v -100.000038 99.949997 99.999962
v -100.035393 100.000000 100.035324
v -99.999992 100.049995 -100.000000
v -99.964638 100.000000 -99.964645
v -99.999992 99.949997 -100.000000
v -100.035347 100.000000 -100.035355
v 100.000046 100.049995 -99.999947
v 99.964691 100.000000 -99.964592
v 100.000046 99.949997 -99.999947
v 100.035408 100.000000 -100.035301
v 100.016609 100.033333 100.033394
v 99.952789 100.011787 100.011848
v 99.983269 99.966667 99.966728
v 100.047073 99.988213 99.988274
v 100.000000 -100.000000 100.049995
v 99.964645 -99.964645 100.000000
v 100.000000 -100.000000 99.949997
v 100.035355 -100.035355 100.000000
v -100.000015 -100.000000 100.049988
v -99.964653 -99.964645 99.999985
v -100.000015 -100.000000 99.949982
v -100.035370 -100.035355 99.999985
v -100.000038 100.000000 100.049957
v -99.950035 100.000000 99.999962
v -100.000038 100.000000 99.949959
v -100.050034 100.000000 99.999962
v -100.000015 -99.949997 99.999985
v -99.950012 -100.000000 99.999985
v -100.000015 -100.049995 99.999985
v -100.050011 -100.000000 99.999985
v -99.999962 -99.964645 -99.964676
v -99.949959 -100.000000 -100.000038
v -99.999962 -100.035355 -100.035393
v -100.049957 -100.000000 -100.000038
v -99.999992 100.000000 -99.949997
v -99.949989 100.000000 -100.000000
v -99.999992 100.000000 -100.049995
v -100.049995 100.000000 -100.000000
v -99.999962 -99.949997 -100.000038
v -99.999962 -100.000000 -99.950035
v -99.999962 -100.049995 -100.000038
v -99.999962 -100.000000 -100.050034
v 99.964645 -99.964645 -99.999992
v 100.000000 -100.000000 -99.949989
v 100.035355 -100.035355 -99.999992
v 100.000000 -100.000000 -100.049995
v 99.950043 100.000000 -99.999947
v 100.000046 100.000000 -99.949944
v 100.050041 100.000000 -99.999947
v 100.000046 100.000000 -100.049950
v 100.000000 -99.949997 -99.999992
v 99.949997 -100.000000 -99.999992
v 100.000000 -100.049995 -99.999992
v 100.049995 -100.000000 -99.999992
v 100.000000 -99.949997 100.000000
v 99.949997 -100.000000 100.000000
v 100.000000 -100.049995 100.000000
v 100.049995 -100.000000 100.000000
vn -0.0000 0.6493 0.7606
vn -0.0000 0.6493 -0.7606
vn -0.0000 -0.6492 -0.7606
vn -0.0000 -0.6492 0.7606
vn -0.8165 0.5774 -0.0000
vn 0.8165 0.5773 0.0000
vn 0.8166 -0.5772 0.0000
vn -0.8165 -0.5773 -0.0000
vn 0.0000 0.5774 -0.8165
vn -0.0000 0.5774 0.8164
vn -0.0000 -0.5773 0.8166
vn 0.0000 -0.5773 -0.8166
vn 0.8222 0.5692 -0.0000
vn -0.5850 0.8110 0.0000
vn -0.8224 -0.5690 -0.0000
vn 0.5850 -0.8111 0.0000
vn 0.8223 -0.0000 0.5690
vn -0.5849 0.0000 0.8111
vn -0.8223 -0.0000 -0.5690
vn 0.5851 0.0000 -0.8110
vn -0.0000 -0.8164 0.5775
vn -0.0000 0.8165 0.5774
vn 0.0000 0.8165 -0.5774
vn 0.0000 -0.8164 -0.5774
vn -0.7607 -0.0000 0.6492
vn 0.7605 -0.0000 0.6493
vn 0.7606 -0.0000 -0.6492
vn -0.7606 -0.0000 -0.6492
vn -0.6492 0.7606 -0.0000
vn 0.6493 0.7606 -0.0000
vn 0.6493 -0.7605 -0.0000
vn -0.6491 -0.7607 -0.0000
vn -0.6492 -0.0000 0.7606
vn 0.6492 -0.0000 0.7606
vn 0.6492 -0.0000 -0.7606
vn -0.6493 -0.0000 -0.7606
vn 0.0000 0.7606 -0.6492
vn 0.0000 0.7606 0.6492
vn 0.0000 -0.7606 0.6492
vn 0.0000 -0.7606 -0.6493
vn -0.7606 -0.0000 -0.6493
vn -0.7606 -0.0000 0.6492
vn 0.7606 -0.0000 0.6492
vn 0.7607 -0.0000 -0.6492
vn 0.7071 0.7071 0.0000
vn -0.7071 0.7071 0.0000
vn -0.7071 -0.7071 0.0000
vn 0.7071 -0.7071 0.0000
usemtl None
s off
f 1//1 5//1 8//1 4//1
f 2//2 6//2 5//2 1//2
f 3//3 7//3 6//3 2//3
f 4//4 8//4 7//4 3//4
f 5//5 9//5 12//5 8//5
f 6//6 10//6 9//6 5//6
f 7//7 11//7 10//7 6//7
f 8//8 12//8 11//8 7//8
f 9//9 13//9 16//9 12//9
f 10//10 14//10 13//10 9//10
f 11//11 15//11 14//11 10//11
f 12//12 16//12 15//12 11//12
f 13//13 17//13 20//13 16//13
f 14//14 18//14 17//14 13//14
f 15//15 19//15 18//15 14//15
f 16//16 20//16 19//16 15//16
f 17//17 21//17 24//17 20//17
f 18//18 22//18 21//18 17//18
f 19//19 23//19 22//19 18//19
f 20//20 24//20 23//20 19//20
f 21//21 25//21 28//21 24//21
f 22//22 26//22 25//22 21//22
f 23//23 27//23 26//23 22//23
f 24//24 28//24 27//24 23//24
f 25//25 29//25 32//25 28//25
f 26//26 30//26 29//26 25//26
f 27//27 31//27 30//27 26//27
f 28//28 32//28 31//28 27//28
f 33//29 37//29 40//29 36//29
f 34//30 38//30 37//30 33//30
f 35//31 39//31 38//31 34//31
f 36//32 40//32 39//32 35//32
f 37//33 41//33 44//33 40//33
f 38//34 42//34 41//34 37//34
f 39//35 43//35 42//35 38//35
f 40//36 44//36 43//36 39//36
f 45//37 49//37 52//37 48//37
f 46//38 50//38 49//38 45//38
f 47//39 51//39 50//39 46//39
f 48//40 52//40 51//40 47//40
f 49//41 53//41 56//41 52//41
f 50//42 54//42 53//42 49//42
f 51//43 55//43 54//43 50//43
f 52//44 56//44 55//44 51//44
f 57//45 61//45 64//45 60//45
f 58//46 62//46 61//46 57//46
f 59//47 63//47 62//47 58//47
f 60//48 64//48 63//48 59//48
